<svg width="225" height="32" viewBox="0 0 225 32" fill="none" xmlns="http://www.w3.org/2000/svg">
<path d="M46.656 6.44H49.752V20.408H55.536V23H46.656V6.44ZM62.7173 11.168C63.6133 11.168 64.4133 11.312 65.1173 11.6C65.8373 11.872 66.4373 12.256 66.9173 12.752C67.4133 13.232 67.7893 13.808 68.0452 14.48C68.3173 15.136 68.4533 15.848 68.4533 16.616C68.4533 16.76 68.4533 16.928 68.4533 17.12C68.4533 17.296 68.4453 17.464 68.4293 17.624C68.4293 17.8 68.4213 17.984 68.4053 18.176H59.8613C60.0053 19.104 60.3973 19.792 61.0373 20.24C61.6773 20.688 62.4373 20.912 63.3173 20.912C64.1013 20.912 64.8133 20.776 65.4533 20.504C66.0933 20.232 66.5493 19.976 66.8213 19.736L68.0213 21.392C67.8613 21.552 67.6293 21.744 67.3253 21.968C67.0213 22.176 66.6533 22.376 66.2213 22.568C65.7893 22.76 65.2853 22.92 64.7093 23.048C64.1333 23.192 63.4933 23.264 62.7893 23.264C61.9093 23.264 61.0933 23.136 60.3413 22.88C59.6053 22.608 58.9653 22.224 58.4213 21.728C57.8773 21.232 57.4533 20.616 57.1493 19.88C56.8452 19.144 56.6932 18.312 56.6932 17.384C56.6932 16.456 56.8532 15.608 57.1732 14.84C57.4932 14.072 57.9252 13.416 58.4693 12.872C59.0133 12.328 59.6453 11.912 60.3653 11.624C61.1013 11.32 61.8853 11.168 62.7173 11.168ZM59.8133 16.184H65.3813C65.3653 15.864 65.3173 15.544 65.2373 15.224C65.1573 14.904 65.0213 14.616 64.8293 14.36C64.6373 14.088 64.3653 13.872 64.0133 13.712C63.6773 13.536 63.2373 13.448 62.6933 13.448C61.7813 13.448 61.0853 13.72 60.6053 14.264C60.1253 14.808 59.8613 15.448 59.8133 16.184ZM74.8789 16.088L77.6629 15.896V15.584C77.6629 14.832 77.4309 14.28 76.9669 13.928C76.5189 13.576 75.8869 13.4 75.0709 13.4C74.3029 13.4 73.6229 13.512 73.0309 13.736C72.4389 13.96 72.0149 14.168 71.7589 14.36L70.8229 12.392C71.2709 12.12 71.8869 11.848 72.6709 11.576C73.4549 11.304 74.3509 11.168 75.3589 11.168C77.1509 11.168 78.4949 11.584 79.3909 12.416C80.2869 13.232 80.7349 14.544 80.7349 16.352V23H77.7829L77.7349 21.656C77.4949 22.072 77.0549 22.448 76.4149 22.784C75.7909 23.104 75.0469 23.264 74.1829 23.264C73.6229 23.264 73.0949 23.184 72.5989 23.024C72.1029 22.88 71.6709 22.656 71.3029 22.352C70.9349 22.048 70.6389 21.672 70.4149 21.224C70.2069 20.76 70.1029 20.224 70.1029 19.616C70.1029 19.008 70.2389 18.496 70.5109 18.08C70.7829 17.648 71.1429 17.296 71.5909 17.024C72.0389 16.736 72.5509 16.52 73.1269 16.376C73.7029 16.232 74.2869 16.136 74.8789 16.088ZM75.1909 21.176C75.7989 21.176 76.3109 21.04 76.7269 20.768C77.1589 20.48 77.4789 20.192 77.6869 19.904V17.768L75.5989 17.888C73.9829 17.984 73.1749 18.528 73.1749 19.52C73.1749 20.016 73.3509 20.416 73.7029 20.72C74.0549 21.024 74.5509 21.176 75.1909 21.176ZM83.6299 23V11.384H86.6779L86.6299 13.256H86.7019C86.9259 12.632 87.3019 12.128 87.8299 11.744C88.3579 11.36 88.9339 11.168 89.5579 11.168C89.7659 11.168 89.9419 11.176 90.0859 11.192C90.2299 11.208 90.3579 11.232 90.4699 11.264C90.5819 11.296 90.6859 11.336 90.7819 11.384L90.5659 14.048H90.4219C90.2459 14 90.0379 13.968 89.7979 13.952C89.5739 13.92 89.3579 13.904 89.1499 13.904C88.2219 13.904 87.5419 14.28 87.1099 15.032C86.8219 15.608 86.6779 16.36 86.6779 17.288V23H83.6299ZM95.6377 11.384L95.6137 13.136H95.6858C96.0057 12.528 96.4537 12.048 97.0297 11.696C97.6058 11.344 98.3178 11.168 99.1658 11.168C99.9978 11.168 100.686 11.296 101.23 11.552C101.774 11.808 102.198 12.16 102.502 12.608C102.822 13.04 103.038 13.56 103.15 14.168C103.278 14.76 103.342 15.408 103.342 16.112V23H100.27V16.784C100.27 16.352 100.246 15.952 100.198 15.584C100.15 15.2 100.046 14.872 99.8858 14.6C99.7418 14.312 99.5338 14.088 99.2618 13.928C98.9898 13.768 98.6298 13.688 98.1818 13.688C97.7018 13.688 97.3018 13.784 96.9818 13.976C96.6617 14.152 96.3977 14.4 96.1897 14.72C95.9978 15.04 95.8537 15.416 95.7577 15.848C95.6777 16.28 95.6377 16.736 95.6377 17.216V23H92.5657V11.384H95.6377ZM106.473 23V11.384H109.545V23H106.473ZM106.161 7.832C106.161 7.336 106.329 6.928 106.665 6.608C107.017 6.288 107.465 6.128 108.009 6.128C108.553 6.128 108.993 6.288 109.329 6.608C109.681 6.928 109.857 7.336 109.857 7.832C109.857 8.344 109.681 8.76 109.329 9.08C108.993 9.384 108.553 9.536 108.009 9.536C107.465 9.536 107.017 9.384 106.665 9.08C106.329 8.76 106.161 8.344 106.161 7.832ZM115.806 11.384L115.782 13.136H115.854C116.174 12.528 116.622 12.048 117.198 11.696C117.774 11.344 118.486 11.168 119.334 11.168C120.166 11.168 120.854 11.296 121.398 11.552C121.942 11.808 122.366 12.16 122.67 12.608C122.99 13.04 123.206 13.56 123.318 14.168C123.446 14.76 123.51 15.408 123.51 16.112V23H120.438V16.784C120.438 16.352 120.414 15.952 120.366 15.584C120.318 15.2 120.214 14.872 120.054 14.6C119.91 14.312 119.702 14.088 119.43 13.928C119.158 13.768 118.798 13.688 118.35 13.688C117.87 13.688 117.47 13.784 117.15 13.976C116.83 14.152 116.566 14.4 116.358 14.72C116.166 15.04 116.022 15.416 115.926 15.848C115.846 16.28 115.806 16.736 115.806 17.216V23H112.734V11.384H115.806ZM131.537 11.168C132.321 11.168 133.025 11.32 133.649 11.624C134.289 11.912 134.817 12.368 135.233 12.992H135.281L135.257 11.384H138.305V20.6C138.305 21.88 138.177 22.904 137.921 23.672C137.665 24.456 137.289 25.104 136.793 25.616C136.297 26.144 135.641 26.616 134.825 27.032C134.009 27.448 132.905 27.656 131.513 27.656C130.825 27.656 130.185 27.584 129.593 27.44C129.001 27.296 128.465 27.128 127.985 26.936C127.521 26.744 127.129 26.552 126.809 26.36C126.489 26.168 126.257 26.024 126.113 25.928L127.385 23.792C127.577 23.92 127.825 24.064 128.129 24.224C128.449 24.384 128.793 24.528 129.161 24.656C129.545 24.8 129.937 24.92 130.337 25.016C130.753 25.112 131.145 25.16 131.513 25.16C132.825 25.16 133.777 24.848 134.369 24.224C134.961 23.616 135.257 22.664 135.257 21.368V20.792H135.209C134.809 21.4 134.273 21.856 133.601 22.16C132.929 22.464 132.145 22.616 131.249 22.616C130.513 22.616 129.817 22.504 129.161 22.28C128.505 22.04 127.929 21.688 127.433 21.224C126.937 20.76 126.545 20.184 126.257 19.496C125.969 18.792 125.825 17.976 125.825 17.048C125.825 16.248 125.961 15.496 126.233 14.792C126.505 14.072 126.889 13.448 127.385 12.92C127.881 12.376 128.481 11.952 129.185 11.648C129.889 11.328 130.673 11.168 131.537 11.168ZM132.113 20.216C133.217 20.216 134.041 19.904 134.585 19.28C135.145 18.64 135.425 17.872 135.425 16.976C135.425 16.56 135.345 16.152 135.185 15.752C135.041 15.336 134.825 14.968 134.537 14.648C134.265 14.328 133.929 14.072 133.529 13.88C133.129 13.688 132.673 13.592 132.161 13.592C131.153 13.592 130.361 13.92 129.785 14.576C129.225 15.216 128.945 16.016 128.945 16.976C128.945 17.872 129.217 18.64 129.761 19.28C130.321 19.904 131.105 20.216 132.113 20.216ZM154.423 6.2C155.239 6.2 155.967 6.28 156.608 6.44C157.248 6.584 157.807 6.76 158.287 6.968C158.767 7.176 159.168 7.4 159.487 7.64C159.808 7.864 160.048 8.064 160.208 8.24L159.104 10.784C158.991 10.624 158.791 10.44 158.503 10.232C158.216 10.008 157.864 9.8 157.448 9.608C157.048 9.4 156.584 9.232 156.056 9.104C155.544 8.96 154.992 8.888 154.4 8.888C153.679 8.888 152.991 9.008 152.335 9.248C151.695 9.488 151.127 9.848 150.631 10.328C150.151 10.808 149.767 11.416 149.479 12.152C149.191 12.872 149.047 13.72 149.047 14.696C149.047 15.592 149.175 16.408 149.431 17.144C149.703 17.864 150.079 18.48 150.559 18.992C151.055 19.504 151.639 19.904 152.311 20.192C153 20.464 153.76 20.6 154.591 20.6C155.695 20.6 156.631 20.4 157.399 20C158.183 19.584 158.824 19.112 159.32 18.584L160.424 20.936C160.183 21.192 159.887 21.456 159.536 21.728C159.2 22 158.783 22.256 158.287 22.496C157.807 22.72 157.248 22.904 156.608 23.048C155.967 23.208 155.239 23.288 154.423 23.288C153.207 23.288 152.071 23.088 151.015 22.688C149.975 22.288 149.071 21.72 148.303 20.984C147.535 20.248 146.927 19.352 146.479 18.296C146.047 17.24 145.831 16.056 145.831 14.744C145.831 13.432 146.055 12.248 146.503 11.192C146.951 10.136 147.559 9.24 148.327 8.504C149.095 7.768 149.999 7.2 151.039 6.8C152.095 6.4 153.224 6.2 154.423 6.2ZM167.656 11.168C168.552 11.168 169.352 11.312 170.056 11.6C170.776 11.872 171.376 12.256 171.856 12.752C172.352 13.232 172.728 13.808 172.984 14.48C173.256 15.136 173.392 15.848 173.392 16.616C173.392 16.76 173.392 16.928 173.392 17.12C173.392 17.296 173.384 17.464 173.368 17.624C173.368 17.8 173.36 17.984 173.344 18.176H164.8C164.944 19.104 165.336 19.792 165.976 20.24C166.616 20.688 167.376 20.912 168.256 20.912C169.04 20.912 169.752 20.776 170.392 20.504C171.032 20.232 171.488 19.976 171.76 19.736L172.96 21.392C172.8 21.552 172.568 21.744 172.264 21.968C171.96 22.176 171.592 22.376 171.16 22.568C170.728 22.76 170.224 22.92 169.648 23.048C169.072 23.192 168.432 23.264 167.728 23.264C166.848 23.264 166.032 23.136 165.28 22.88C164.544 22.608 163.904 22.224 163.36 21.728C162.816 21.232 162.392 20.616 162.088 19.88C161.784 19.144 161.632 18.312 161.632 17.384C161.632 16.456 161.792 15.608 162.112 14.84C162.432 14.072 162.864 13.416 163.408 12.872C163.952 12.328 164.584 11.912 165.304 11.624C166.04 11.32 166.824 11.168 167.656 11.168ZM164.752 16.184H170.32C170.304 15.864 170.256 15.544 170.176 15.224C170.096 14.904 169.96 14.616 169.768 14.36C169.576 14.088 169.304 13.872 168.952 13.712C168.616 13.536 168.176 13.448 167.632 13.448C166.72 13.448 166.024 13.72 165.544 14.264C165.064 14.808 164.8 15.448 164.752 16.184ZM178.767 11.384L178.743 13.136H178.815C179.135 12.528 179.583 12.048 180.159 11.696C180.735 11.344 181.447 11.168 182.295 11.168C183.127 11.168 183.815 11.296 184.359 11.552C184.903 11.808 185.327 12.16 185.631 12.608C185.951 13.04 186.167 13.56 186.279 14.168C186.407 14.76 186.471 15.408 186.471 16.112V23H183.399V16.784C183.399 16.352 183.375 15.952 183.327 15.584C183.279 15.2 183.175 14.872 183.015 14.6C182.871 14.312 182.663 14.088 182.391 13.928C182.119 13.768 181.759 13.688 181.311 13.688C180.831 13.688 180.431 13.784 180.111 13.976C179.791 14.152 179.527 14.4 179.319 14.72C179.127 15.04 178.983 15.416 178.887 15.848C178.807 16.28 178.767 16.736 178.767 17.216V23H175.695V11.384H178.767ZM190.034 11.408V8.096H193.082V11.408H195.77V13.784H193.082V18.488C193.082 19.384 193.178 19.976 193.37 20.264C193.562 20.552 193.93 20.696 194.474 20.696C194.634 20.696 194.778 20.688 194.906 20.672C195.05 20.656 195.17 20.632 195.266 20.6C195.378 20.568 195.482 20.536 195.578 20.504L195.746 22.88C195.666 22.912 195.418 22.984 195.002 23.096C194.586 23.208 194.05 23.264 193.394 23.264C192.194 23.264 191.33 22.96 190.802 22.352C190.29 21.744 190.034 20.68 190.034 19.16V13.784H188.306V11.408H190.034ZM203.042 11.168C203.938 11.168 204.738 11.312 205.442 11.6C206.162 11.872 206.762 12.256 207.242 12.752C207.738 13.232 208.114 13.808 208.37 14.48C208.642 15.136 208.778 15.848 208.778 16.616C208.778 16.76 208.778 16.928 208.778 17.12C208.778 17.296 208.77 17.464 208.754 17.624C208.754 17.8 208.746 17.984 208.73 18.176H200.186C200.33 19.104 200.722 19.792 201.362 20.24C202.002 20.688 202.762 20.912 203.642 20.912C204.426 20.912 205.138 20.776 205.778 20.504C206.418 20.232 206.874 19.976 207.146 19.736L208.346 21.392C208.186 21.552 207.954 21.744 207.65 21.968C207.346 22.176 206.978 22.376 206.546 22.568C206.114 22.76 205.61 22.92 205.034 23.048C204.458 23.192 203.818 23.264 203.114 23.264C202.234 23.264 201.418 23.136 200.666 22.88C199.93 22.608 199.29 22.224 198.746 21.728C198.202 21.232 197.778 20.616 197.474 19.88C197.17 19.144 197.018 18.312 197.018 17.384C197.018 16.456 197.178 15.608 197.498 14.84C197.818 14.072 198.25 13.416 198.794 12.872C199.338 12.328 199.97 11.912 200.69 11.624C201.426 11.32 202.21 11.168 203.042 11.168ZM200.138 16.184H205.706C205.69 15.864 205.642 15.544 205.562 15.224C205.482 14.904 205.346 14.616 205.154 14.36C204.962 14.088 204.69 13.872 204.338 13.712C204.002 13.536 203.562 13.448 203.018 13.448C202.106 13.448 201.41 13.72 200.93 14.264C200.45 14.808 200.186 15.448 200.138 16.184ZM211.081 23V11.384H214.129L214.081 13.256H214.153C214.377 12.632 214.753 12.128 215.281 11.744C215.809 11.36 216.385 11.168 217.009 11.168C217.217 11.168 217.393 11.176 217.537 11.192C217.681 11.208 217.809 11.232 217.921 11.264C218.033 11.296 218.137 11.336 218.233 11.384L218.017 14.048H217.873C217.697 14 217.489 13.968 217.249 13.952C217.025 13.92 216.809 13.904 216.601 13.904C215.673 13.904 214.993 14.28 214.561 15.032C214.273 15.608 214.129 16.36 214.129 17.288V23H211.081Z" fill="url(#paint0_linear_868)"/>
<path d="M14.8067 29C14.6371 28.9966 14.471 28.9508 14.3236 28.8667L5.42758 24.0016C5.26802 23.9154 5.13444 23.788 5.0407 23.6327C4.94696 23.4774 4.89647 23.2999 4.89449 23.1185V18.6533C4.89785 18.4806 4.94517 18.3116 5.03196 18.1623C5.11876 18.0129 5.24218 17.8882 5.39056 17.7998C5.53894 17.7115 5.7074 17.6624 5.88002 17.6572C6.05265 17.652 6.22374 17.6909 6.37716 17.7702L14.7068 22.3688L23.0364 17.7869C23.1891 17.7025 23.3613 17.6596 23.5358 17.6625C23.7103 17.6653 23.881 17.7138 24.031 17.8031C24.1809 17.8924 24.3048 18.0194 24.3905 18.1715C24.4761 18.3236 24.5204 18.4954 24.519 18.6699V23.1518C24.531 23.3125 24.5038 23.4737 24.44 23.6217C24.3762 23.7696 24.2776 23.9 24.1525 24.0016L15.2565 28.85C15.1211 28.936 14.9666 28.9875 14.8067 29ZM6.21057 22.9519L14.7901 27.6338L23.3696 22.9519V19.1698L15.2732 23.585C15.1253 23.6667 14.959 23.7096 14.7901 23.7096C14.6211 23.7096 14.4549 23.6667 14.3069 23.585L6.21057 19.1698V22.9519ZM28.0008 23.7683C27.475 23.7683 26.9708 23.5594 26.599 23.1876C26.2272 22.8158 26.0184 22.3115 26.0184 21.7856V15.1211L15.2732 20.9859C15.1253 21.0675 14.959 21.1104 14.7901 21.1104C14.6211 21.1104 14.4549 21.0675 14.3069 20.9859L0.513115 13.4216C0.357276 13.3328 0.227716 13.2043 0.137594 13.0492C0.047472 12.8941 0 12.7179 0 12.5385C0 12.3591 0.047472 12.183 0.137594 12.0279C0.227716 11.8728 0.357276 11.7443 0.513115 11.6555L14.3236 4.12452C14.4715 4.04284 14.6377 4 14.8067 4C14.9757 4 15.1419 4.04284 15.2898 4.12452L29.4668 11.8554C29.6276 11.9402 29.7621 12.0673 29.8561 12.2229C29.95 12.3785 29.9997 12.5567 29.9999 12.7385V21.769C30.0021 22.0321 29.952 22.2931 29.8523 22.5367C29.7526 22.7803 29.6054 23.0016 29.4194 23.1877C29.2333 23.3738 29.012 23.521 28.7685 23.6206C28.5249 23.7203 28.264 23.7705 28.0008 23.7683ZM26.3349 13.5549C26.6015 13.5593 26.8557 13.6683 27.0427 13.8584C27.2297 14.0485 27.3345 14.3045 27.3345 14.5712V21.7856C27.3594 21.9422 27.4394 22.0847 27.56 22.1876C27.6806 22.2905 27.834 22.347 27.9925 22.347C28.151 22.347 28.3044 22.2905 28.425 22.1876C28.5456 22.0847 28.6255 21.9422 28.6505 21.7856V12.9384L14.8067 5.37413L1.6626 12.5385L14.8067 19.7029L25.8185 13.6882C25.9754 13.5978 26.1539 13.5517 26.3349 13.5549Z" fill="#3F3F71"/>
<defs>
<linearGradient id="paint0_linear_868" x1="37" y1="23" x2="247" y2="23" gradientUnits="userSpaceOnUse">
<stop stop-color="#3F3F71"/>
<stop offset="1" stop-color="#CB3778"/>
</linearGradient>
</defs>
</svg>
